<svg width="100" height="100" viewBox="0 0 100 100" fill="none" xmlns="http://www.w3.org/2000/svg">
<path d="M44.6 17.3C36.8 23.3 30.2 36.3 28.3 49.5C28.1 51.1 29.2 52.6 30.8 52.9C30.9 52.9 31.1 52.9 31.2 52.9C32.6 52.9 33.9 51.8 34.1 50.4C35.8 38.7 41.6 27 48.2 22C49.5 21 49.7 19.1 48.7 17.8C47.8 16.5 45.9 16.3 44.6 17.3Z" fill="white"/>
<path d="M75.3 20.9C68.5 9.5 59.3 3 50.2 3C30.4 3 15 32.2 15 57.4C15 69.7 18.6 80.1 25.4 87.5C31.7 94.3 40.5 98 50.2 98C59.9 98 68.6 94.3 75 87.5C81.8 80.2 85.4 69.8 85.4 57.4C85.4 44.8 81.7 31.5 75.3 20.9ZM50.2 92.1C30 92.1 20.9 74.7 20.9 57.4C20.9 33.4 35.7 8.9 50.2 8.9C64.7 8.9 79.5 33.4 79.5 57.4C79.5 74.7 70.4 92.1 50.2 92.1Z" fill="white"/>
</svg>
