<svg width="100" height="100" viewBox="0 0 100 100" fill="none" xmlns="http://www.w3.org/2000/svg">
<path d="M53.88 38.17L50.38 31.6L46.88 38.17C45.94 39.93 44.06 41.99 42.06 44.17C37.11 49.57 30.96 56.29 31.28 66.25C31.63 76.84 40.02 85.13 50.38 85.13C60.75 85.13 69.14 76.84 69.48 66.25C69.8 56.3 63.65 49.57 58.7 44.17C56.7 41.99 54.81 39.93 53.88 38.17ZM61.82 62.17C62.92 62.2 63.77 63.12 63.74 64.22C63.48 72.19 57.18 78.43 49.39 78.43C48.29 78.43 47.41 77.54 47.41 76.45C47.41 75.35 48.3 74.47 49.39 74.47C55.03 74.47 59.59 69.91 59.78 64.1C59.81 62.99 60.76 62.12 61.82 62.17Z" fill="white"/>
<path d="M79.45 15C81.3 22.14 78.1 27.21 76.83 28.88C76.81 27.42 76.24 25.1 73.39 23.03C74.3 27.74 69 28.73 69 37.33C69.27 43.19 73.81 49.36 82 49.36C90.19 49.36 94.73 43.19 95 37.33C95.42 27.92 85.51 17.57 79.45 15Z" fill="white"/>
<path d="M23.68 31.87C19.79 31.87 16.64 35.02 16.64 38.91C16.64 42.8 19.79 45.95 23.68 45.95C27.57 45.95 30.72 42.8 30.72 38.91C30.72 35.02 27.57 31.87 23.68 31.87Z" fill="white"/>
<path d="M23.61 28.17C26 28.17 27.94 26.23 27.94 23.84C27.94 21.45 26 19.51 23.61 19.51C21.22 19.51 19.28 21.45 19.28 23.84C19.27 26.23 21.21 28.17 23.61 28.17Z" fill="white"/>
<path d="M10.55 24.01C7.48 24.01 5 26.49 5 29.56C5 32.62 7.48 35.11 10.55 35.11C13.61 35.11 16.1 32.63 16.1 29.56C16.09 26.49 13.61 24.01 10.55 24.01Z" fill="white"/>
</svg>
