<svg width="100" height="100" viewBox="0 0 100 100" fill="none" xmlns="http://www.w3.org/2000/svg">
<path d="M42.2202 49.779C42.2202 54.292 45.8712 57.944 50.3832 57.944C54.8962 57.944 58.5472 54.292 58.5472 49.779C58.5472 45.268 54.8962 41.616 50.3832 41.616C45.8712 41.616 42.2202 45.269 42.2202 49.779Z" fill="white"/>
<path d="M86.8131 39.066C82.1521 22.884 67.2391 11 49.5811 11C31.8581 11 16.8941 22.966 12.2901 39.235C10.9571 45.583 15.0061 46.558 15.3911 46.558H29.8531C34.8831 46.558 37.4451 43.04 37.8391 42.453C40.3611 38.138 45.0711 35.171 50.3841 35.171C55.6631 35.171 60.2851 38.095 62.8371 42.363L62.8421 42.333C62.8421 42.333 65.4241 46.559 70.9091 46.559H83.7381C84.1251 46.558 88.2661 45.581 86.8131 39.066Z" fill="white"/>
<path d="M86.8041 60.307C87.9311 55.364 85.8561 53.584 84.5871 53.003H69.9851C65.9461 53.378 63.6751 55.985 63.0471 56.85C60.5361 61.302 55.6921 64.39 50.2761 64.39C44.7401 64.39 39.9431 61.162 37.4831 56.549C36.6231 55.483 34.4121 53.34 30.7751 53.003H14.5411C13.2711 53.584 11.1971 55.363 12.3241 60.307C12.3461 60.411 12.3561 60.487 12.3771 60.584C17.0651 76.721 31.9541 88.562 49.5801 88.562C67.1231 88.562 81.9451 76.829 86.7101 60.809C86.7411 60.64 86.7601 60.494 86.8041 60.307Z" fill="white"/>
</svg>
